<svg width="1220" height="72" viewBox="0 0 1220 72" fill="none" xmlns="http://www.w3.org/2000/svg">
<path d="M19.08 8.688C23.816 8.688 27.9547 9.648 31.496 11.568C35.08 13.488 37.832 16.1547 39.752 19.568C41.672 22.9813 42.632 26.864 42.632 31.216C42.632 35.5253 41.672 39.408 39.752 42.864C37.832 46.32 35.08 49.0507 31.496 51.056C27.9547 53.0187 23.816 54 19.08 54H0.2V8.688H19.08ZM17.8 41.328C21 41.328 23.5387 40.4533 25.416 38.704C27.2933 36.9547 28.232 34.4587 28.232 31.216C28.232 27.9733 27.2933 25.4773 25.416 23.728C23.5387 21.9787 21 21.104 17.8 21.104H14.408V41.328H17.8ZM82.7065 35.632C82.7065 36.6133 82.6425 37.552 82.5145 38.448H59.6665C59.8798 41.5627 61.1812 43.12 63.5705 43.12C65.1065 43.12 66.2158 42.416 66.8985 41.008H81.9385C81.4265 43.568 80.3385 45.872 78.6745 47.92C77.0532 49.9253 74.9838 51.5253 72.4665 52.72C69.9918 53.872 67.2612 54.448 64.2745 54.448C60.6905 54.448 57.4905 53.7013 54.6745 52.208C51.9012 50.7147 49.7252 48.5813 48.1465 45.808C46.6105 42.992 45.8425 39.7067 45.8425 35.952C45.8425 32.1973 46.6105 28.9333 48.1465 26.16C49.7252 23.344 51.9012 21.1893 54.6745 19.696C57.4905 18.2027 60.6905 17.456 64.2745 17.456C67.8585 17.456 71.0372 18.2027 73.8105 19.696C76.6265 21.1467 78.8025 23.2373 80.3385 25.968C81.9172 28.6987 82.7065 31.92 82.7065 35.632ZM68.3065 32.24C68.3065 31.0453 67.9225 30.1493 67.1545 29.552C66.3865 28.912 65.4265 28.592 64.2745 28.592C61.7572 28.592 60.2852 29.808 59.8585 32.24H68.3065ZM101.408 6.64V54H87.2V6.64H101.408ZM114.993 15.024C112.518 15.024 110.534 14.3627 109.041 13.04C107.548 11.7173 106.801 10.0533 106.801 8.048C106.801 6 107.548 4.31466 109.041 2.992C110.534 1.62666 112.518 0.943996 114.993 0.943996C117.425 0.943996 119.388 1.62666 120.881 2.992C122.374 4.31466 123.121 6 123.121 8.048C123.121 10.0533 122.374 11.7173 120.881 13.04C119.388 14.3627 117.425 15.024 114.993 15.024ZM122.033 17.904V54H107.825V17.904H122.033ZM146.754 40.496L152.514 17.904H167.618L155.586 54H137.858L125.826 17.904H140.93L146.754 40.496ZM206.332 35.632C206.332 36.6133 206.268 37.552 206.14 38.448H183.292C183.505 41.5627 184.806 43.12 187.196 43.12C188.732 43.12 189.841 42.416 190.524 41.008H205.564C205.052 43.568 203.964 45.872 202.3 47.92C200.678 49.9253 198.609 51.5253 196.092 52.72C193.617 53.872 190.886 54.448 187.9 54.448C184.316 54.448 181.116 53.7013 178.3 52.208C175.526 50.7147 173.35 48.5813 171.772 45.808C170.236 42.992 169.468 39.7067 169.468 35.952C169.468 32.1973 170.236 28.9333 171.772 26.16C173.35 23.344 175.526 21.1893 178.3 19.696C181.116 18.2027 184.316 17.456 187.9 17.456C191.484 17.456 194.662 18.2027 197.436 19.696C200.252 21.1467 202.428 23.2373 203.964 25.968C205.542 28.6987 206.332 31.92 206.332 35.632ZM191.932 32.24C191.932 31.0453 191.548 30.1493 190.78 29.552C190.012 28.912 189.052 28.592 187.9 28.592C185.382 28.592 183.91 29.808 183.484 32.24H191.932ZM225.033 24.56C226.484 22.4693 228.254 20.8053 230.345 19.568C232.436 18.288 234.612 17.648 236.873 17.648V32.816H232.841C230.153 32.816 228.169 33.2853 226.889 34.224C225.652 35.1627 225.033 36.8267 225.033 39.216V54H210.825V17.904H225.033V24.56ZM247.868 15.024C245.393 15.024 243.409 14.3627 241.916 13.04C240.423 11.7173 239.676 10.0533 239.676 8.048C239.676 6 240.423 4.31466 241.916 2.992C243.409 1.62666 245.393 0.943996 247.868 0.943996C250.3 0.943996 252.263 1.62666 253.756 2.992C255.249 4.31466 255.996 6 255.996 8.048C255.996 10.0533 255.249 11.7173 253.756 13.04C252.263 14.3627 250.3 15.024 247.868 15.024ZM254.908 17.904V54H240.7V17.904H254.908ZM286.605 17.648C290.744 17.648 293.965 19.0347 296.269 21.808C298.616 24.5813 299.789 28.336 299.789 33.072V54H285.645V34.864C285.645 33.1573 285.176 31.8133 284.237 30.832C283.341 29.808 282.125 29.296 280.589 29.296C279.01 29.296 277.773 29.808 276.877 30.832C275.981 31.8133 275.533 33.1573 275.533 34.864V54H261.325V17.904H275.533V23.408C276.642 21.7013 278.114 20.3147 279.949 19.248C281.826 18.1813 284.045 17.648 286.605 17.648ZM318.942 17.456C321.289 17.456 323.315 17.9467 325.022 18.928C326.729 19.8667 328.03 21.168 328.926 22.832V17.904H343.07V53.36C343.07 56.7307 342.451 59.8027 341.214 62.576C339.977 65.3493 337.971 67.568 335.198 69.232C332.467 70.896 328.947 71.728 324.638 71.728C318.835 71.728 314.227 70.3627 310.814 67.632C307.443 64.944 305.523 61.2747 305.054 56.624H319.006C319.39 58.5013 320.926 59.44 323.614 59.44C325.278 59.44 326.579 59.0133 327.518 58.16C328.457 57.3067 328.926 55.7067 328.926 53.36V49.072C328.03 50.736 326.729 52.0587 325.022 53.04C323.315 53.9787 321.289 54.448 318.942 54.448C316.126 54.448 313.587 53.7227 311.326 52.272C309.065 50.7787 307.273 48.6453 305.95 45.872C304.67 43.056 304.03 39.7493 304.03 35.952C304.03 32.1547 304.67 28.8693 305.95 26.096C307.273 23.28 309.065 21.1467 311.326 19.696C313.587 18.2027 316.126 17.456 318.942 17.456ZM328.926 35.952C328.926 34.032 328.435 32.5387 327.454 31.472C326.473 30.4053 325.214 29.872 323.678 29.872C322.142 29.872 320.883 30.4053 319.902 31.472C318.921 32.5387 318.43 34.032 318.43 35.952C318.43 37.872 318.921 39.3653 319.902 40.432C320.883 41.4987 322.142 42.032 323.678 42.032C325.214 42.032 326.473 41.4987 327.454 40.432C328.435 39.3653 328.926 37.872 328.926 35.952ZM378.053 54.448C372.634 54.448 368.154 53.1893 364.613 50.672C361.114 48.112 359.216 44.3787 358.917 39.472H374.021C374.234 42.0747 375.386 43.376 377.477 43.376C378.245 43.376 378.885 43.2053 379.397 42.864C379.952 42.48 380.229 41.904 380.229 41.136C380.229 40.0693 379.653 39.216 378.501 38.576C377.349 37.8933 375.557 37.1253 373.125 36.272C370.224 35.248 367.813 34.2453 365.893 33.264C364.016 32.2827 362.394 30.8533 361.029 28.976C359.664 27.0987 359.002 24.688 359.045 21.744C359.045 18.8 359.792 16.304 361.285 14.256C362.821 12.1653 364.89 10.5867 367.493 9.52C370.138 8.45333 373.104 7.92 376.389 7.92C381.936 7.92 386.33 9.2 389.573 11.76C392.858 14.32 394.586 17.9253 394.757 22.576H379.461C379.418 21.296 379.098 20.3787 378.501 19.824C377.904 19.2693 377.178 18.992 376.325 18.992C375.728 18.992 375.237 19.2053 374.853 19.632C374.469 20.016 374.277 20.5707 374.277 21.296C374.277 22.32 374.832 23.1733 375.941 23.856C377.093 24.496 378.906 25.2853 381.381 26.224C384.24 27.2907 386.586 28.3147 388.421 29.296C390.298 30.2773 391.92 31.6427 393.285 33.392C394.65 35.1413 395.333 37.3387 395.333 39.984C395.333 42.7573 394.65 45.2533 393.285 47.472C391.92 49.648 389.936 51.3547 387.333 52.592C384.73 53.8293 381.637 54.448 378.053 54.448ZM435.269 35.632C435.269 36.6133 435.205 37.552 435.077 38.448H412.229C412.442 41.5627 413.744 43.12 416.133 43.12C417.669 43.12 418.778 42.416 419.461 41.008H434.501C433.989 43.568 432.901 45.872 431.237 47.92C429.616 49.9253 427.546 51.5253 425.029 52.72C422.554 53.872 419.824 54.448 416.837 54.448C413.253 54.448 410.053 53.7013 407.237 52.208C404.464 50.7147 402.288 48.5813 400.709 45.808C399.173 42.992 398.405 39.7067 398.405 35.952C398.405 32.1973 399.173 28.9333 400.709 26.16C402.288 23.344 404.464 21.1893 407.237 19.696C410.053 18.2027 413.253 17.456 416.837 17.456C420.421 17.456 423.6 18.2027 426.373 19.696C429.189 21.1467 431.365 23.2373 432.901 25.968C434.48 28.6987 435.269 31.92 435.269 35.632ZM420.869 32.24C420.869 31.0453 420.485 30.1493 419.717 29.552C418.949 28.912 417.989 28.592 416.837 28.592C414.32 28.592 412.848 29.808 412.421 32.24H420.869ZM453.971 24.56C455.421 22.4693 457.192 20.8053 459.283 19.568C461.373 18.288 463.549 17.648 465.811 17.648V32.816H461.779C459.091 32.816 457.107 33.2853 455.827 34.224C454.589 35.1627 453.971 36.8267 453.971 39.216V54H439.763V17.904H453.971V24.56ZM487.942 40.496L493.702 17.904H508.806L496.774 54H479.046L467.014 17.904H482.118L487.942 40.496ZM519.743 15.024C517.268 15.024 515.284 14.3627 513.791 13.04C512.298 11.7173 511.551 10.0533 511.551 8.048C511.551 6 512.298 4.31466 513.791 2.992C515.284 1.62666 517.268 0.943996 519.743 0.943996C522.175 0.943996 524.138 1.62666 525.631 2.992C527.124 4.31466 527.871 6 527.871 8.048C527.871 10.0533 527.124 11.7173 525.631 13.04C524.138 14.3627 522.175 15.024 519.743 15.024ZM526.783 17.904V54H512.575V17.904H526.783ZM531.28 35.952C531.28 32.1973 532.048 28.9333 533.584 26.16C535.163 23.344 537.339 21.1893 540.112 19.696C542.928 18.2027 546.128 17.456 549.712 17.456C554.405 17.456 558.352 18.7787 561.552 21.424C564.795 24.0693 566.843 27.7387 567.696 32.432H552.656C552.101 30.5547 551.013 29.616 549.392 29.616C548.24 29.616 547.323 30.1493 546.64 31.216C546 32.2827 545.68 33.8613 545.68 35.952C545.68 38.0427 546 39.6213 546.64 40.688C547.323 41.7547 548.24 42.288 549.392 42.288C551.013 42.288 552.101 41.3493 552.656 39.472H567.696C566.843 44.1653 564.795 47.8347 561.552 50.48C558.352 53.1253 554.405 54.448 549.712 54.448C546.128 54.448 542.928 53.7013 540.112 52.208C537.339 50.7147 535.163 48.5813 533.584 45.808C532.048 42.992 531.28 39.7067 531.28 35.952ZM607.144 35.632C607.144 36.6133 607.08 37.552 606.952 38.448H584.104C584.317 41.5627 585.619 43.12 588.008 43.12C589.544 43.12 590.653 42.416 591.336 41.008H606.376C605.864 43.568 604.776 45.872 603.112 47.92C601.491 49.9253 599.421 51.5253 596.904 52.72C594.429 53.872 591.699 54.448 588.712 54.448C585.128 54.448 581.928 53.7013 579.112 52.208C576.339 50.7147 574.163 48.5813 572.584 45.808C571.048 42.992 570.28 39.7067 570.28 35.952C570.28 32.1973 571.048 28.9333 572.584 26.16C574.163 23.344 576.339 21.1893 579.112 19.696C581.928 18.2027 585.128 17.456 588.712 17.456C592.296 17.456 595.475 18.2027 598.248 19.696C601.064 21.1467 603.24 23.2373 604.776 25.968C606.355 28.6987 607.144 31.92 607.144 35.632ZM592.744 32.24C592.744 31.0453 592.36 30.1493 591.592 29.552C590.824 28.912 589.864 28.592 588.712 28.592C586.195 28.592 584.723 29.808 584.296 32.24H592.744ZM627.702 54.448C624.288 54.448 621.259 53.8933 618.614 52.784C616.011 51.6747 613.942 50.1387 612.406 48.176C610.87 46.2133 609.995 43.9947 609.782 41.52H623.414C623.584 42.5867 624.032 43.376 624.758 43.888C625.526 44.4 626.486 44.656 627.638 44.656C628.363 44.656 628.939 44.5067 629.366 44.208C629.792 43.8667 630.006 43.4613 630.006 42.992C630.006 42.1813 629.558 41.6053 628.662 41.264C627.766 40.9227 626.251 40.5387 624.118 40.112C621.515 39.6 619.36 39.0453 617.654 38.448C615.99 37.8507 614.518 36.8267 613.238 35.376C612 33.9253 611.382 31.92 611.382 29.36C611.382 27.1413 611.958 25.136 613.11 23.344C614.304 21.5093 616.054 20.08 618.358 19.056C620.662 17.9893 623.456 17.456 626.742 17.456C631.606 17.456 635.403 18.6507 638.134 21.04C640.907 23.4293 642.571 26.544 643.126 30.384H630.518C630.304 29.4027 629.856 28.656 629.174 28.144C628.491 27.5893 627.574 27.312 626.422 27.312C625.696 27.312 625.142 27.4613 624.758 27.76C624.374 28.016 624.182 28.4213 624.182 28.976C624.182 29.7013 624.63 30.256 625.526 30.64C626.422 30.9813 627.851 31.344 629.814 31.728C632.416 32.24 634.614 32.816 636.406 33.456C638.198 34.096 639.755 35.2053 641.078 36.784C642.4 38.32 643.062 40.4533 643.062 43.184C643.062 45.3173 642.443 47.2373 641.206 48.944C639.968 50.6507 638.176 51.9947 635.83 52.976C633.526 53.9573 630.816 54.448 627.702 54.448ZM663.932 42.672L657.34 61.68H648.38L651.388 42.672H663.932ZM704.234 54L695.722 37.744H695.658V54H681.45V8.688H702.57C706.239 8.688 709.375 9.34933 711.978 10.672C714.581 11.952 716.522 13.7227 717.802 15.984C719.125 18.2027 719.786 20.72 719.786 23.536C719.786 26.5653 718.933 29.2533 717.226 31.6C715.562 33.9467 713.151 35.632 709.994 36.656L719.85 54H704.234ZM695.658 28.272H701.29C702.655 28.272 703.679 27.9733 704.362 27.376C705.045 26.736 705.386 25.7547 705.386 24.432C705.386 23.2373 705.023 22.2987 704.298 21.616C703.615 20.9333 702.613 20.592 701.29 20.592H695.658V28.272ZM759.269 35.632C759.269 36.6133 759.205 37.552 759.077 38.448H736.229C736.442 41.5627 737.744 43.12 740.133 43.12C741.669 43.12 742.778 42.416 743.461 41.008H758.501C757.989 43.568 756.901 45.872 755.237 47.92C753.616 49.9253 751.546 51.5253 749.029 52.72C746.554 53.872 743.824 54.448 740.837 54.448C737.253 54.448 734.053 53.7013 731.237 52.208C728.464 50.7147 726.288 48.5813 724.709 45.808C723.173 42.992 722.405 39.7067 722.405 35.952C722.405 32.1973 723.173 28.9333 724.709 26.16C726.288 23.344 728.464 21.1893 731.237 19.696C734.053 18.2027 737.253 17.456 740.837 17.456C744.421 17.456 747.6 18.2027 750.373 19.696C753.189 21.1467 755.365 23.2373 756.901 25.968C758.48 28.6987 759.269 31.92 759.269 35.632ZM744.869 32.24C744.869 31.0453 744.485 30.1493 743.717 29.552C742.949 28.912 741.989 28.592 740.837 28.592C738.32 28.592 736.848 29.808 736.421 32.24H744.869ZM761.843 35.952C761.843 32.1973 762.611 28.9333 764.147 26.16C765.725 23.344 767.901 21.1893 770.675 19.696C773.491 18.2027 776.691 17.456 780.275 17.456C784.968 17.456 788.915 18.7787 792.115 21.424C795.357 24.0693 797.405 27.7387 798.259 32.432H783.219C782.664 30.5547 781.576 29.616 779.955 29.616C778.803 29.616 777.885 30.1493 777.203 31.216C776.563 32.2827 776.243 33.8613 776.243 35.952C776.243 38.0427 776.563 39.6213 777.203 40.688C777.885 41.7547 778.803 42.288 779.955 42.288C781.576 42.288 782.664 41.3493 783.219 39.472H798.259C797.405 44.1653 795.357 47.8347 792.115 50.48C788.915 53.1253 784.968 54.448 780.275 54.448C776.691 54.448 773.491 53.7013 770.675 52.208C767.901 50.7147 765.725 48.5813 764.147 45.808C762.611 42.992 761.843 39.7067 761.843 35.952ZM837.707 35.632C837.707 36.6133 837.643 37.552 837.515 38.448H814.667C814.88 41.5627 816.181 43.12 818.571 43.12C820.107 43.12 821.216 42.416 821.899 41.008H836.939C836.427 43.568 835.339 45.872 833.675 47.92C832.053 49.9253 829.984 51.5253 827.467 52.72C824.992 53.872 822.261 54.448 819.275 54.448C815.691 54.448 812.491 53.7013 809.675 52.208C806.901 50.7147 804.725 48.5813 803.147 45.808C801.611 42.992 800.843 39.7067 800.843 35.952C800.843 32.1973 801.611 28.9333 803.147 26.16C804.725 23.344 806.901 21.1893 809.675 19.696C812.491 18.2027 815.691 17.456 819.275 17.456C822.859 17.456 826.037 18.2027 828.811 19.696C831.627 21.1467 833.803 23.2373 835.339 25.968C836.917 28.6987 837.707 31.92 837.707 35.632ZM823.307 32.24C823.307 31.0453 822.923 30.1493 822.155 29.552C821.387 28.912 820.427 28.592 819.275 28.592C816.757 28.592 815.285 29.808 814.859 32.24H823.307ZM849.368 15.024C846.893 15.024 844.909 14.3627 843.416 13.04C841.923 11.7173 841.176 10.0533 841.176 8.048C841.176 6 841.923 4.31466 843.416 2.992C844.909 1.62666 846.893 0.943996 849.368 0.943996C851.8 0.943996 853.763 1.62666 855.256 2.992C856.749 4.31466 857.496 6 857.496 8.048C857.496 10.0533 856.749 11.7173 855.256 13.04C853.763 14.3627 851.8 15.024 849.368 15.024ZM856.408 17.904V54H842.2V17.904H856.408ZM881.129 40.496L886.889 17.904H901.993L889.961 54H872.233L860.201 17.904H875.305L881.129 40.496ZM912.931 15.024C910.456 15.024 908.472 14.3627 906.979 13.04C905.485 11.7173 904.739 10.0533 904.739 8.048C904.739 6 905.485 4.31466 906.979 2.992C908.472 1.62666 910.456 0.943996 912.931 0.943996C915.363 0.943996 917.325 1.62666 918.819 2.992C920.312 4.31466 921.059 6 921.059 8.048C921.059 10.0533 920.312 11.7173 918.819 13.04C917.325 14.3627 915.363 15.024 912.931 15.024ZM919.971 17.904V54H905.763V17.904H919.971ZM951.668 17.648C955.806 17.648 959.028 19.0347 961.332 21.808C963.678 24.5813 964.852 28.336 964.852 33.072V54H950.708V34.864C950.708 33.1573 950.238 31.8133 949.3 30.832C948.404 29.808 947.188 29.296 945.652 29.296C944.073 29.296 942.836 29.808 941.94 30.832C941.044 31.8133 940.596 33.1573 940.596 34.864V54H926.388V17.904H940.596V23.408C941.705 21.7013 943.177 20.3147 945.012 19.248C946.889 18.1813 949.108 17.648 951.668 17.648ZM984.005 17.456C986.351 17.456 988.378 17.9467 990.085 18.928C991.791 19.8667 993.093 21.168 993.989 22.832V17.904H1008.13V53.36C1008.13 56.7307 1007.51 59.8027 1006.28 62.576C1005.04 65.3493 1003.03 67.568 1000.26 69.232C997.53 70.896 994.01 71.728 989.701 71.728C983.898 71.728 979.29 70.3627 975.877 67.632C972.506 64.944 970.586 61.2747 970.117 56.624H984.069C984.453 58.5013 985.989 59.44 988.677 59.44C990.341 59.44 991.642 59.0133 992.581 58.16C993.519 57.3067 993.989 55.7067 993.989 53.36V49.072C993.093 50.736 991.791 52.0587 990.085 53.04C988.378 53.9787 986.351 54.448 984.005 54.448C981.189 54.448 978.65 53.7227 976.389 52.272C974.127 50.7787 972.335 48.6453 971.013 45.872C969.733 43.056 969.093 39.7493 969.093 35.952C969.093 32.1547 969.733 28.8693 971.013 26.096C972.335 23.28 974.127 21.1467 976.389 19.696C978.65 18.2027 981.189 17.456 984.005 17.456ZM993.989 35.952C993.989 34.032 993.498 32.5387 992.517 31.472C991.535 30.4053 990.277 29.872 988.741 29.872C987.205 29.872 985.946 30.4053 984.965 31.472C983.983 32.5387 983.493 34.032 983.493 35.952C983.493 37.872 983.983 39.3653 984.965 40.432C985.946 41.4987 987.205 42.032 988.741 42.032C990.277 42.032 991.535 41.4987 992.517 40.432C993.498 39.3653 993.989 37.872 993.989 35.952ZM1060.97 8.688V19.952H1048.94V54H1034.73V19.952H1022.83V8.688H1060.97ZM1079.03 24.56C1080.48 22.4693 1082.25 20.8053 1084.35 19.568C1086.44 18.288 1088.61 17.648 1090.87 17.648V32.816H1086.84C1084.15 32.816 1082.17 33.2853 1080.89 34.224C1079.65 35.1627 1079.03 36.8267 1079.03 39.216V54H1064.83V17.904H1079.03V24.56ZM1132.91 17.904V54H1118.7V48.496C1117.59 50.2027 1116.1 51.5893 1114.22 52.656C1112.39 53.7227 1110.19 54.256 1107.63 54.256C1103.49 54.256 1100.25 52.8693 1097.9 50.096C1095.6 47.3227 1094.44 43.568 1094.44 38.832V17.904H1108.59V37.04C1108.59 38.7467 1109.04 40.112 1109.93 41.136C1110.87 42.1173 1112.11 42.608 1113.64 42.608C1115.22 42.608 1116.46 42.1173 1117.36 41.136C1118.25 40.112 1118.7 38.7467 1118.7 37.04V17.904H1132.91ZM1155.39 54.448C1151.98 54.448 1148.95 53.8933 1146.3 52.784C1143.7 51.6747 1141.63 50.1387 1140.09 48.176C1138.56 46.2133 1137.68 43.9947 1137.47 41.52H1151.1C1151.27 42.5867 1151.72 43.376 1152.45 43.888C1153.21 44.4 1154.17 44.656 1155.33 44.656C1156.05 44.656 1156.63 44.5067 1157.05 44.208C1157.48 43.8667 1157.69 43.4613 1157.69 42.992C1157.69 42.1813 1157.25 41.6053 1156.35 41.264C1155.45 40.9227 1153.94 40.5387 1151.81 40.112C1149.2 39.6 1147.05 39.0453 1145.34 38.448C1143.68 37.8507 1142.21 36.8267 1140.93 35.376C1139.69 33.9253 1139.07 31.92 1139.07 29.36C1139.07 27.1413 1139.65 25.136 1140.8 23.344C1141.99 21.5093 1143.74 20.08 1146.05 19.056C1148.35 17.9893 1151.14 17.456 1154.43 17.456C1159.29 17.456 1163.09 18.6507 1165.82 21.04C1168.59 23.4293 1170.26 26.544 1170.81 30.384H1158.21C1157.99 29.4027 1157.54 28.656 1156.86 28.144C1156.18 27.5893 1155.26 27.312 1154.11 27.312C1153.38 27.312 1152.83 27.4613 1152.45 27.76C1152.06 28.016 1151.87 28.4213 1151.87 28.976C1151.87 29.7013 1152.32 30.256 1153.21 30.64C1154.11 30.9813 1155.54 31.344 1157.5 31.728C1160.1 32.24 1162.3 32.816 1164.09 33.456C1165.89 34.096 1167.44 35.2053 1168.77 36.784C1170.09 38.32 1170.75 40.4533 1170.75 43.184C1170.75 45.3173 1170.13 47.2373 1168.89 48.944C1167.66 50.6507 1165.86 51.9947 1163.52 52.976C1161.21 53.9573 1158.5 54.448 1155.39 54.448ZM1198.85 41.904V54H1193.48C1183.58 54 1178.63 49.072 1178.63 39.216V29.744H1174.15V17.904H1178.63V9.2H1192.84V17.904H1198.72V29.744H1192.84V39.472C1192.84 40.3253 1193.03 40.944 1193.41 41.328C1193.84 41.712 1194.52 41.904 1195.46 41.904H1198.85ZM1211.3 54.512C1208.83 54.512 1206.84 53.8507 1205.35 52.528C1203.86 51.2053 1203.11 49.5413 1203.11 47.536C1203.11 45.488 1203.86 43.8027 1205.35 42.48C1206.84 41.1147 1208.83 40.432 1211.3 40.432C1213.73 40.432 1215.7 41.1147 1217.19 42.48C1218.68 43.8027 1219.43 45.488 1219.43 47.536C1219.43 49.5413 1218.68 51.2053 1217.19 52.528C1215.7 53.8507 1213.73 54.512 1211.3 54.512Z" fill="white"/>
</svg>
